<svg xmlns="http://www.w3.org/2000/svg" style="display:none">
  <!--
    Written in Sound - Icon-Bibliothek
    Einheitlicher Stroke-Stil (viewBox 0 0 24 24, fill:none, stroke:currentColor, stroke-width:2,
    stroke-linecap:round, stroke-linejoin:round) - passend zum bisherigen Footer-Icon-Stil.
    Einbindung: <svg class="icon"><use href="assets/icons/social-icons.svg#instagram"></use></svg>
    Dient als Basis fuer den Icon-Picker im spaeteren Admin-Dashboard (Phase 3).
  -->

  <symbol id="instagram" viewBox="0 0 24 24">
    <rect width="20" height="20" x="2" y="2" rx="5" ry="5" />
    <path d="M16 11.37A4 4 0 1 1 12.63 8 4 4 0 0 1 16 11.37z" />
    <line x1="17.5" x2="17.51" y1="6.5" y2="6.5" />
  </symbol>

  <symbol id="youtube" viewBox="0 0 24 24">
    <path
      d="M2.5 17a24.12 24.12 0 0 1 0-10 2 2 0 0 1 1.4-1.4 49.56 49.56 0 0 1 16.2 0A2 2 0 0 1 21.5 7a24.12 24.12 0 0 1 0 10 2 2 0 0 1-1.4 1.4 49.55 49.55 0 0 1-16.2 0A2 2 0 0 1 2.5 17" />
    <path d="m10 15 5-3-5-3z" />
  </symbol>

  <symbol id="facebook" viewBox="0 0 24 24">
    <path d="M18 2h-3a5 5 0 0 0-5 5v3H7v4h3v8h4v-8h3l1-4h-4V7a1 1 0 0 1 1-1h3z" />
  </symbol>

  <symbol id="tiktok" viewBox="0 0 24 24">
    <path d="M14 4v10.5a3.5 3.5 0 1 1-2-3.163" />
    <path d="M14 4c0 2.5 1.5 4.3 4 4.6" />
  </symbol>

  <symbol id="x-twitter" viewBox="0 0 24 24">
    <path d="M4 4l16 16M20 4L4 20" />
  </symbol>

  <symbol id="paypal" viewBox="0 0 24 24">
    <path d="M7 20V6a2 2 0 0 1 2-2h4a4 4 0 0 1 0 8H9" />
    <path d="M10 20v-6" />
  </symbol>

  <symbol id="whatsapp" viewBox="0 0 24 24">
    <path
      d="M21 11.5a8.38 8.38 0 0 1-.9 3.8 8.5 8.5 0 0 1-7.6 4.7 8.38 8.38 0 0 1-3.8-.9L3 21l1.9-5.7a8.38 8.38 0 0 1-.9-3.8 8.5 8.5 0 0 1 4.7-7.6 8.38 8.38 0 0 1 3.8-.9h.5a8.48 8.48 0 0 1 8 8v.5z" />
  </symbol>

  <symbol id="spotify" viewBox="0 0 24 24">
    <circle cx="12" cy="12" r="9" />
    <path d="M7.5 10.5c3-1 6.5-1 9 .8" />
    <path d="M7.8 13.3c2.4-.8 5.2-.7 7.3.6" />
    <path d="M8.2 15.9c1.9-.5 4-.4 5.6.5" />
  </symbol>

  <symbol id="apple-music" viewBox="0 0 24 24">
    <rect x="3" y="3" width="18" height="18" rx="5" />
    <path d="M10 15.5V8l6-1.2v7.7" />
    <circle cx="8.5" cy="16" r="1.8" />
    <circle cx="14.5" cy="14.8" r="1.8" />
  </symbol>

  <symbol id="soundcloud" viewBox="0 0 24 24">
    <path d="M6 17h11a3.5 3.5 0 0 0 .5-6.96A5 5 0 0 0 8 9.06 3.5 3.5 0 0 0 6 17z" />
    <path d="M8 13v4" />
    <path d="M10 11.5v5.5" />
    <path d="M12 12v5" />
  </symbol>

  <symbol id="linkedin" viewBox="0 0 24 24">
    <rect x="3" y="3" width="18" height="18" rx="4" />
    <path d="M7 10v7" />
    <path d="M7 7v.01" />
    <path d="M11 17v-4.5a2 2 0 0 1 4 0V17" />
    <path d="M11 12.2V17" />
  </symbol>

  <symbol id="mail" viewBox="0 0 24 24">
    <rect x="3" y="5" width="18" height="14" rx="2" />
    <path d="m3 7 9 6 9-6" />
  </symbol>

  <symbol id="phone" viewBox="0 0 24 24">
    <path
      d="M3 5a2 2 0 0 1 2-2h1.5a2 2 0 0 1 2 1.7c.1.8.3 1.6.6 2.3a2 2 0 0 1-.5 2.1L7.5 10.2a14 14 0 0 0 6.3 6.3l1.1-1.1a2 2 0 0 1 2.1-.5c.7.3 1.5.5 2.3.6a2 2 0 0 1 1.7 2V19a2 2 0 0 1-2 2h-1A16 16 0 0 1 3 6V5z" />
  </symbol>
</svg>
